<svg width="120" height="120" viewBox="0 0 120 120" fill="none" xmlns="http://www.w3.org/2000/svg">
  <g>
    <path d="M60 10C32.4 10 10 32.4 10 60C10 87.6 32.4 110 60 110C87.6 110 110 87.6 110 60C110 32.4 87.6 10 60 10Z" fill="#f7f3ec" stroke="#000000" stroke-width="1.5"/>
    <path d="M38 40C47.5 30.5 67 35 76 52C85 69 69 95 53 82C41 72 28.5 49.5 38 40Z" fill="#f7f3ec" stroke="#000000" stroke-width="1.5"/>
    <path d="M82 40C72.5 30.5 53 35 44 52C35 69 51 95 67 82C79 72 91.5 49.5 82 40Z" fill="#f7f3ec" stroke="#000000" stroke-width="1.5"/>
    <text x="47" y="75" font-family="serif" font-size="36" fill="#000000" font-style="italic">EO</text>
  </g>
</svg> 